<svg width="25" height="24" viewBox="0 0 25 24" fill="none" xmlns="http://www.w3.org/2000/svg">
<g clip-path="url(#clip0_4008_3868)">
<path d="M20.7751 0H13.1721V11.0001H24.1667V3.39003C24.1667 1.52003 22.646 0 20.7751 0ZM20.175 8.00004H17.1738C16.6235 8.00004 16.1733 7.55009 16.1733 7.00004C16.1733 6.44004 16.6235 6.00003 17.1738 6.00003H20.175C20.7252 6.00003 21.1754 6.44004 21.1754 7.00004C21.1754 7.55009 20.7252 8.00004 20.175 8.00004ZM20.175 5.00003H17.1738C16.6235 5.00003 16.1733 4.55007 16.1733 4.00002C16.1733 3.44002 16.6235 3.00002 17.1738 3.00002H20.175C20.7252 3.00002 21.1754 3.44002 21.1754 4.00002C21.1754 4.55007 20.7252 5.00003 20.175 5.00003Z" fill="#525DFF"/>
<path d="M13.1721 13V24.0001H20.7751C22.646 24.0001 24.1667 22.48 24.1667 20.6101V13H13.1721ZM20.175 19.5H17.1738C16.6235 19.5 16.1733 19.0501 16.1733 18.5C16.1733 17.94 16.6235 17.5 17.1738 17.5H20.175C20.7252 17.5 21.1754 17.94 21.1754 18.5C21.1754 19.0501 20.7252 19.5 20.175 19.5Z" fill="#525DFF"/>
<path d="M3.55797 0C1.6872 0 0.166668 1.52003 0.166668 3.39003V11.0001H11.1713V0H3.55797ZM7.42971 6.50003H6.66938V7.25004C6.66938 7.80009 6.22913 8.25004 5.66896 8.25004C5.11868 8.25004 4.66855 7.80009 4.66855 7.25004V6.50003H3.91823C3.36795 6.50003 2.91782 6.05008 2.91782 5.50003C2.91782 4.94003 3.36795 4.50002 3.91823 4.50002H4.66855V3.74007C4.66855 3.19002 5.11868 2.74007 5.66896 2.74007C6.22913 2.74007 6.66938 3.19002 6.66938 3.74007V4.50002H7.42971C7.97986 4.50002 8.43012 4.94003 8.43012 5.50003C8.43012 6.05008 7.97986 6.50003 7.42971 6.50003Z" fill="#525DFF"/>
<path d="M0.166668 13V20.6101C0.166668 22.48 1.6872 24.0001 3.55797 24.0001H11.1713V13H0.166668ZM7.61973 19.0301C8.00978 19.4201 8.00978 20.0501 7.61973 20.44C7.41969 20.6401 7.16959 20.7401 6.90947 20.7401C6.65937 20.7401 6.39925 20.6401 6.20911 20.44L5.67898 19.9101L5.13871 20.44C4.94857 20.6401 4.68845 20.7401 4.42846 20.7401C4.17835 20.7401 3.91823 20.6401 3.72809 20.44C3.33791 20.0501 3.33791 19.4201 3.72809 19.0301L4.26823 18.5L3.72809 17.96C3.33791 17.57 3.33791 16.94 3.72809 16.5501C4.11827 16.1601 4.74853 16.1601 5.13871 16.5501L5.67898 17.09L6.20911 16.5501C6.59928 16.1601 7.22955 16.1601 7.61973 16.5501C8.00978 16.94 8.00978 17.57 7.61973 17.96L7.08948 18.5L7.61973 19.0301Z" fill="#525DFF"/>
</g>
<defs>
<clipPath id="clip0_4008_3868">
<rect width="24" height="24" fill="white" transform="translate(0.166668)"/>
</clipPath>
</defs>
</svg>
