<svg width="32" height="32" viewBox="0 0 32 32" fill="none" xmlns="http://www.w3.org/2000/svg">
<g clip-path="url(#clip0_4008_3642)">
<path d="M9.16294 25.2525H5.81444C5.31444 25.2525 4.90894 24.847 4.90894 24.347V9.82103C4.90894 9.32103 5.31444 8.91553 5.81444 8.91553H9.16294C9.66294 8.91553 10.0684 9.32103 10.0684 9.82103V24.347C10.0684 24.847 9.66294 25.2525 9.16294 25.2525Z" fill="#F74354"/>
<path d="M18.1109 25.2525H14.7624C14.2624 25.2525 13.8569 24.847 13.8569 24.347V3.64952C13.8569 3.14952 14.2624 2.74402 14.7624 2.74402H18.1109C18.6109 2.74402 19.0164 3.14952 19.0164 3.64952V24.347C19.0164 24.847 18.6109 25.2525 18.1109 25.2525Z" fill="#F74354"/>
<path d="M27.0584 25.2525H23.7099C23.2099 25.2525 22.8044 24.847 22.8044 24.347V14.904C22.8044 14.404 23.2099 13.9985 23.7099 13.9985H27.0584C27.5584 13.9985 27.9639 14.404 27.9639 14.904V24.347C27.9644 24.847 27.5589 25.2525 27.0584 25.2525Z" fill="#F74354"/>
<path d="M32 29.256C32 28.756 31.5945 28.3505 31.0945 28.3505H1.8115V5.02751C1.8115 4.52701 1.406 4.12201 0.906 4.12201C0.406 4.12201 0 4.52751 0 5.02751V29.2555C0 29.7555 0.4055 30.161 0.9055 30.161H31.094C31.5945 30.1615 32 29.756 32 29.256Z" fill="#ECECFC"/>
</g>
<defs>
<clipPath id="clip0_4008_3642">
<rect width="32" height="32" fill="white"/>
</clipPath>
</defs>
</svg>
