<svg width="21" height="20" viewBox="0 0 21 20" fill="none" xmlns="http://www.w3.org/2000/svg">
<path d="M19.4724 10.1053L19.2537 10L19.4724 9.8947C20.7847 9.1579 21.2221 7.57895 20.4566 6.31579L18.9256 3.78947C18.5976 3.15789 17.9414 2.73684 17.2853 2.52632C16.6292 2.31579 15.8637 2.42105 15.2075 2.73684L14.9888 2.84211V2.63158C14.9888 1.15789 13.7859 0 12.2549 0H9.30231C7.77134 0 6.56843 1.15789 6.56843 2.63158V2.84211H6.45907C5.80293 2.42105 5.1468 2.31579 4.3813 2.52632C3.61581 2.73684 3.06903 3.15789 2.74096 3.78947L1.20998 6.31579C0.444493 7.57895 0.881913 9.1579 2.19418 9.8947L2.4129 10L2.19418 10.1053C0.881913 10.8421 0.444493 12.4211 1.20998 13.6842L2.74096 16.2105C3.06903 16.8421 3.72517 17.2632 4.3813 17.4737C5.1468 17.6842 5.80293 17.5789 6.45907 17.1579H6.56843V17.3684C6.56843 18.8421 7.77134 20 9.30231 20H12.2549C13.7859 20 14.9888 18.8421 14.9888 17.3684V17.1579L15.2075 17.2632C15.8637 17.5789 16.6292 17.6842 17.2853 17.4737C18.0508 17.2632 18.5976 16.8421 18.9256 16.2105L20.4566 13.6842C21.2221 12.4211 20.7847 10.8421 19.4724 10.1053ZM10.8333 14C8.53683 14 6.67778 12.2105 6.67778 10C6.67778 7.78947 8.53683 6 10.8333 6C13.1298 6 14.9888 7.78947 14.9888 10C14.9888 12.2105 13.1298 14 10.8333 14Z" fill="#525DFF"/>
</svg>
