<svg width="21" height="20" viewBox="0 0 21 20" fill="none" xmlns="http://www.w3.org/2000/svg">
<path d="M6.21429 2.85714V17.1429C6.21429 18.6735 4.9898 20 3.35714 20C1.72449 20 0.5 18.6735 0.5 17.1429V2.85714C0.5 1.32653 1.72449 0 3.35714 0C4.9898 0 6.21429 1.32653 6.21429 2.85714Z" fill="#525DFF"/>
<path d="M13.3568 7.95919V17.1429C13.3568 18.6735 12.1324 20 10.4997 20C8.86702 20 7.64258 18.6735 7.64258 17.1429V7.95919C7.64258 6.42858 8.86702 5.10205 10.4997 5.10205C12.1324 5.10205 13.3568 6.42858 13.3568 7.95919Z" fill="#525DFF"/>
<path d="M20.5004 2.85714V17.1429C20.5004 18.6735 19.2759 20 17.6433 20C16.0106 20 14.7861 18.7755 14.7861 17.1429V2.85714C14.7861 1.32653 16.0106 0 17.6433 0C19.2759 0 20.5004 1.32653 20.5004 2.85714Z" fill="#525DFF"/>
</svg>
