<svg width="32" height="32" viewBox="0 0 32 32" fill="none" xmlns="http://www.w3.org/2000/svg">
<g clip-path="url(#clip0_4008_3588)">
<path d="M13.612 26.022C15.4853 26.022 17.004 24.5033 17.004 22.63C17.004 20.7566 15.4853 19.238 13.612 19.238C11.7386 19.238 10.22 20.7566 10.22 22.63C10.22 24.5033 11.7386 26.022 13.612 26.022Z" fill="#404049"/>
<path d="M15.9189 30.6505L14.5652 31.1432C14.0382 31.335 13.4477 31.1616 13.108 30.7153L6.01733 21.3977L11.9714 19.2307L16.6343 28.8903C16.9639 29.5731 16.6314 30.3912 15.9189 30.6505Z" fill="#DEDEEA"/>
<path opacity="0.1" d="M14.4324 24.3326C12.4389 24.7208 11.2113 26.3261 10.7706 27.6481L9.17578 25.5497L6.01758 21.3948L11.9667 19.2333L14.3695 24.1962L14.4324 24.3326Z" fill="black"/>
<path d="M18.1982 2.89917C14.9881 6.93479 10.208 10.161 6.1958 12.017L8.31866 17.8495L10.4415 23.682C14.7081 22.5248 20.4436 21.9237 25.4968 22.9517C24.5847 18.9476 23.723 15.8312 22.5698 12.6625C21.4165 9.49393 20.0733 6.55269 18.1982 2.89917Z" fill="#F0F0FC"/>
<path d="M8.33134 24.4501L10.4416 23.682L6.1959 12.017L4.08564 12.7851C0.864446 13.9575 -0.796414 17.5192 0.376006 20.7404C1.54842 23.9616 5.11015 25.6225 8.33134 24.4501Z" fill="#F7524B"/>
<path opacity="0.1" d="M25.5041 22.9485C20.447 21.9202 14.708 22.5288 10.4483 23.6829L8.33947 24.4488C7.63647 24.7006 6.92304 24.8265 6.2096 24.8265C3.6811 24.8265 1.29944 23.2632 0.376153 20.7452C-0.400232 18.5839 0.0823531 16.2757 1.46728 14.6285C2.9676 17.4612 5.7899 19.1399 9.05291 19.8534C13.9736 20.9341 19.9224 19.7904 23.9722 16.9786C24.5073 18.8042 25.0004 20.7452 25.5041 22.9485Z" fill="black"/>
<path d="M27.5206 23.8963C26.6994 24.1952 25.7914 23.7717 25.4925 22.9505L18.196 2.90348C17.8971 2.08227 18.3205 1.17423 19.1417 0.87534C19.9629 0.57644 20.8709 0.999865 21.1698 1.82108L28.4664 21.8681C28.7653 22.6893 28.3418 23.5974 27.5206 23.8963Z" fill="#F7524B"/>
<path d="M26.5912 7.47875C26.4867 7.47875 26.3822 7.44801 26.291 7.38448C26.0533 7.2185 25.9949 6.89165 26.1609 6.65395L27.4386 4.82249C27.6056 4.58478 27.9345 4.52843 28.1691 4.69236C28.4068 4.85835 28.4652 5.18519 28.2992 5.4229L27.0216 7.25436C26.9191 7.40037 26.7562 7.47875 26.5912 7.47875ZM31.9816 15.1698C32.0574 14.8901 31.8915 14.6022 31.6117 14.5264L29.456 13.9444C29.1814 13.8712 28.8884 14.0346 28.8136 14.3143C28.7378 14.594 28.9037 14.8819 29.1835 14.9578L31.3392 15.5397C31.3843 15.552 31.4304 15.5577 31.4755 15.5577C31.707 15.5577 31.9191 15.404 31.9816 15.1698ZM28.1353 11.1955L30.2439 10.428C30.5164 10.3292 30.6568 10.0279 30.5574 9.7559C30.4581 9.48387 30.1578 9.34299 29.8853 9.44238L27.7767 10.2098C27.5042 10.3087 27.3638 10.6099 27.4632 10.8819C27.541 11.095 27.7419 11.2272 27.956 11.2272C28.0154 11.2272 28.0759 11.217 28.1353 11.1955Z" fill="#404049"/>
</g>
<defs>
<clipPath id="clip0_4008_3588">
<rect width="32" height="32" fill="white"/>
</clipPath>
</defs>
</svg>
